# xmcd
# 
# Track frame offsets:
#     150
#     18420
#     38052
#     56817
#     66285
#     74187
#     90040
#     94870
#     100530
#     114337
#     134030
#     151830
#     164955
#     176892
#     210745
# 
# Disc length: 3337
# 
# Revision: 3
# Processed by: cddbd v1.5.2PL0 Copyright (c) Steve Scherf et al.
# Submitted via: fre:ac v1.0.31
# 
DISCID=d60d070f
DTITLE=Heeresmusikkorps 300 - 40 Jahre
DYEAR=1996
DGENRE=Brass
TTITLE0=Jubelkl‰nge
TTITLE1=A la mi presente
TTITLE2=Hoch Heidecksburg
TTITLE3=Frei weg
TTITLE4=Preuﬂischer Prasentiermarsch
TTITLE5=Pro Patria
TTITLE6=Altniederl‰ndisches Dankgebet
TTITLE7=Nationalhumne
TTITLE8=Alte Kameraden
TTITLE9=POS Marsch
TTITLE10=Signature
TTITLE11=Erinnerungen an Zirkus Renz
TTITLE12=Tico Tico
TTITLE13=Children of Sanchez
TTITLE14=Oldies forever
EXTD=YEAR: 1996\nLeitung Major Thomas Klinkhammer
EXTT0=
EXTT1=
EXTT2=
EXTT3=
EXTT4=
EXTT5=
EXTT6=
EXTT7=
EXTT8=
EXTT9=
EXTT10=
EXTT11=
EXTT12=
EXTT13=
EXTT14=
PLAYORDER=
